<?xml version="1.0" encoding="UTF-8"?>
<svg version="1.1" xmlns="http://www.w3.org/2000/svg" width="581" height="477">
<path d="M0 0 C191.73 0 383.46 0 581 0 C581 157.41 581 314.82 581 477 C389.27 477 197.54 477 0 477 C0 319.59 0 162.18 0 0 Z " fill="#FEFEFE" transform="translate(0,0)"/>
<path d="M0 0 C0.82404831 -0.00571014 1.64809662 -0.01142029 2.49711609 -0.01730347 C3.84056343 -0.01898026 3.84056343 -0.01898026 5.21115112 -0.02069092 C6.16127579 -0.02565582 7.11140045 -0.03062073 8.09031677 -0.03573608 C11.23460618 -0.05034337 14.37884507 -0.05715847 17.52316284 -0.06268311 C19.71309409 -0.06843714 21.90302532 -0.07419484 24.09295654 -0.07995605 C28.68785842 -0.09046293 33.28274283 -0.09630719 37.87765503 -0.09979248 C43.74846997 -0.10526681 49.61905177 -0.12927361 55.48979378 -0.15776443 C60.01614034 -0.17644681 64.54243147 -0.18159947 69.06881332 -0.18312836 C71.23202662 -0.18614438 73.39523919 -0.1941372 75.55841446 -0.20731354 C78.59518052 -0.22448587 81.63138664 -0.22246614 84.66818237 -0.21600342 C85.55166855 -0.2252182 86.43515472 -0.23443298 87.34541321 -0.243927 C99.47592682 -0.16359488 108.72625768 4.28444775 117.57785034 12.39044189 C123.94483147 19.03875475 126.93104054 27.0924295 126.98898315 36.15899658 C126.9985907 37.37415955 127.00819824 38.58932251 127.01809692 39.84130859 C127.02447174 41.8069577 127.02447174 41.8069577 127.03097534 43.81231689 C127.03521641 44.81786495 127.03521641 44.81786495 127.03954315 45.84372711 C127.05451245 49.39315686 127.06375539 52.94254622 127.06808472 56.49200439 C127.07355767 60.1412508 127.09756683 63.79012189 127.12605667 67.43925095 C127.144773 70.26014245 127.14989346 73.08094529 127.15142059 75.90189362 C127.15588267 77.89590285 127.17448648 79.88986444 127.19338989 81.88378906 C127.17668903 88.716234 126.77028748 93.94476953 123.82785034 100.14044189 C123.41406128 101.02731689 123.00027222 101.91419189 122.57394409 102.82794189 C117.22554895 112.27943421 109.34341093 118.7658251 98.81079102 121.70291138 C91.21554253 123.47553734 84.00242977 123.09152588 76.25753784 122.71075439 C42.98197986 119.71180007 42.98197986 119.71180007 13.59609985 131.09896851 C9.27035363 135.46045064 5.74344997 140.46919875 2.77828979 145.83966064 C0.82785034 148.14044189 0.82785034 148.14044189 -2.74856567 149.07672119 C-6.17214966 149.14044189 -6.17214966 149.14044189 -8.56277466 147.47247314 C-11.02357545 142.37765986 -10.85027477 137.41784779 -10.92214966 131.82794189 C-10.9517981 130.70581299 -10.98144653 129.58368408 -11.01199341 128.42755127 C-11.08252383 125.66510983 -11.13530459 122.90350416 -11.17214966 120.14044189 C-11.8505188 119.81503418 -12.52888794 119.48962646 -13.22781372 119.15435791 C-14.12210083 118.71792969 -15.01638794 118.28150146 -15.93777466 117.83184814 C-16.8223938 117.40331543 -17.70701294 116.97478271 -18.61843872 116.53326416 C-27.09271347 111.91130073 -32.02276046 103.38036736 -34.72229004 94.28736877 C-36.31989742 87.77278501 -36.47845342 81.48622909 -36.47293091 74.80059814 C-36.47721603 73.63846298 -36.48150116 72.47632782 -36.48591614 71.27897644 C-36.49163387 68.83249561 -36.49217867 66.38599779 -36.48782349 63.93951416 C-36.48466226 60.21778103 -36.50816054 56.49684271 -36.53347778 52.77520752 C-36.53575106 50.38783872 -36.53645414 48.00046781 -36.53543091 45.61309814 C-36.54464066 44.51176041 -36.5538504 43.41042267 -36.56333923 42.27571106 C-36.49318536 30.43490593 -33.35829053 20.11341647 -25.39089966 11.13262939 C-18.65602297 4.75657811 -9.40058082 0.03919843 0 0 Z " fill="#60A872" transform="translate(357.1721496582031,83.85955810546875)"/>
<path d="M0 0 C11.22 0 22.44 0 34 0 C34.33 23.1 34.66 46.2 35 70 C43.4519058 59.73697153 51.84660785 49.49104021 60 39 C61.14697616 37.52852168 62.29412025 36.05717425 63.44140625 34.5859375 C75.37043242 20.93782082 75.37043242 20.93782082 84.93212891 5.87402344 C86.36053371 3.10055277 87.3892354 1.75738891 90 0 C96.29990613 -1.38507259 102.97964647 -0.74637742 109.375 -0.5 C111.17830694 -0.45984736 112.98169922 -0.42334968 114.78515625 -0.390625 C119.19221621 -0.30270412 123.59517238 -0.16480863 128 0 C127.40571044 3.12151233 126.47912631 4.97084717 124.4453125 7.3984375 C123.65543945 8.35363281 123.65543945 8.35363281 122.84960938 9.328125 C122.28048828 10.00359375 121.71136719 10.6790625 121.125 11.375 C119.92869721 12.81949294 118.73340076 14.26481983 117.5390625 15.7109375 C116.9399707 16.4337793 116.34087891 17.15662109 115.72363281 17.90136719 C113.26484792 20.89509452 110.87865053 23.94249269 108.5 27 C104.55902737 32.0492359 100.54895562 37.03699444 96.5 42 C94.33143285 44.66512636 92.16519016 47.33212966 90 50 C89.46181641 50.66193359 88.92363281 51.32386719 88.36914062 52.00585938 C86.82203939 53.91476748 85.28470077 55.83111586 83.75 57.75 C83.28400391 58.32234375 82.81800781 58.8946875 82.33789062 59.484375 C79.09029699 63.32113581 79.09029699 63.32113581 78 68 C79.32134816 70.92764855 79.32134816 70.92764855 81.4375 74.125 C81.83219482 74.75825195 82.22688965 75.39150391 82.63354492 76.04394531 C83.54961349 77.51361051 84.47067367 78.98017091 85.39550781 80.44433594 C87.19917298 83.31724631 88.97229317 86.2077272 90.7421875 89.1015625 C96.77844059 98.96684788 102.850619 108.80659984 109.0625 118.5625 C115.79065961 129.13048557 122.18366837 139.89886749 128.58642578 150.66601562 C129.67997543 152.47160019 130.82907184 154.24360776 132 156 C132 156.99 132 157.98 132 159 C101.12230818 163.38802211 101.12230818 163.38802211 91.88525391 156.76757812 C86.94203869 150.98528231 83.84906286 144.23180858 80.84751892 137.29724121 C77.57280012 129.74757407 73.32435554 122.85234139 69.02960205 115.84863281 C66.99953446 112.51918641 65.02623322 109.15661556 63.046875 105.796875 C60.10127116 100.8190752 57.09896197 95.88396406 54 91 C50.36978155 92.67592023 48.62200311 94.4219674 46.1875 97.625 C42.27668185 102.73728599 42.27668185 102.73728599 40.27655029 104.63644409 C35.56660358 109.28614928 34.18814644 112.63780027 34.05445862 119.22473145 C34.07584145 120.73770813 34.07584145 120.73770813 34.09765625 122.28125 C34.08536484 123.33534058 34.07307343 124.38943115 34.06040955 125.47546387 C34.02880449 128.81769419 34.04492164 132.15770296 34.0625 135.5 C34.04938382 137.77606207 34.03314039 140.0521084 34.01367188 142.328125 C33.96707987 147.8867536 33.98512191 153.43984369 34 159 C22.78 159 11.56 159 0 159 C0 106.53 0 54.06 0 0 Z " fill="#196D6B" transform="translate(50,97)"/>
<path d="M0 0 C1.29349365 0.00523682 2.5869873 0.01047363 3.91967773 0.01586914 C4.9496714 0.01799156 4.9496714 0.01799156 6.00047302 0.02015686 C8.20144949 0.0257706 10.40232557 0.03832532 12.60327148 0.05102539 C14.09220231 0.05603863 15.58113473 0.06060184 17.07006836 0.06469727 C20.72700223 0.07574446 24.38387707 0.09301826 28.04077148 0.11352539 C28.04315984 0.66091055 28.04554819 1.20829571 28.04800892 1.7722683 C28.1072993 15.12822276 28.1831242 28.48399671 28.2764864 41.83975792 C28.32114273 48.29867674 28.36040952 54.75753317 28.38720703 61.21655273 C28.41328692 67.45419727 28.45372303 73.6916011 28.50395775 79.92909622 C28.52059469 82.30438866 28.53212866 84.6797227 28.53838539 87.05506516 C28.54806077 90.39170087 28.57616219 93.72772515 28.60839844 97.06420898 C28.60696335 98.03813599 28.60552826 99.01206299 28.60404968 100.01550293 C28.71721267 108.34129932 30.13969034 116.84543501 35.39233398 123.57836914 C40.10478064 127.96697468 46.64669473 130.70539283 53.04077148 131.11352539 C53.70463867 131.16379883 54.36850586 131.21407227 55.05249023 131.26586914 C62.6133244 131.59574847 69.86388682 130.17184093 75.91577148 125.42602539 C80.28251214 121.30645874 83.77893278 115.08395792 84.17943668 109.01085377 C84.18588923 108.19506698 84.19234179 107.37928019 84.19898987 106.53877258 C84.20877869 105.60067749 84.2185675 104.6625824 84.22865295 103.69606018 C84.23440842 102.66891403 84.24016388 101.64176788 84.24609375 100.58349609 C84.25599335 99.50041168 84.26589294 98.41732727 84.27609253 97.30142212 C84.30773204 93.71407269 84.33247474 90.12671 84.35717773 86.53930664 C84.37774514 84.05494336 84.39874155 81.57058359 84.42015076 79.08622742 C84.46974416 73.21084215 84.51500379 67.33543594 84.55817312 61.46000022 C84.61240731 54.11465393 84.6733536 46.76936709 84.73413086 39.42407227 C84.84173936 26.32059455 84.9426707 13.21707774 85.04077148 0.11352539 C95.60077148 0.11352539 106.16077148 0.11352539 117.04077148 0.11352539 C117.13134312 15.14388913 117.20491049 30.1741115 117.24802017 45.20468426 C117.26857588 52.18489597 117.29656108 59.16492508 117.3425293 66.14501953 C117.38691651 72.88830594 117.4099473 79.63140304 117.42028046 86.37482643 C117.42763907 88.9402851 117.4420083 91.50573409 117.46369171 94.07111168 C117.72018042 125.69010166 117.72018042 125.69010166 107.04077148 139.11352539 C106.14358398 140.27174805 106.14358398 140.27174805 105.22827148 141.45336914 C95.93715962 152.71134944 81.63064756 159.19290649 67.26855469 160.90185547 C48.5337923 162.68191454 30.73826058 160.31963924 15.18530273 149.04321289 C3.91101007 139.52573134 -2.6835519 126.77604653 -3.95922852 112.11352539 C-4.09570644 108.41902527 -4.09604961 104.72844648 -4.08862305 101.03173828 C-4.09037537 99.94953003 -4.09212769 98.86732178 -4.09393311 97.75231934 C-4.09831324 94.19692351 -4.09542863 90.64157791 -4.09204102 87.08618164 C-4.09271481 84.61136363 -4.09368547 82.13654569 -4.09494019 79.66172791 C-4.09641166 74.48802049 -4.09427899 69.31433039 -4.08959961 64.140625 C-4.08388173 57.49338522 -4.08719777 50.84620617 -4.09317207 44.19896793 C-4.09677474 39.09567457 -4.09564083 33.99239085 -4.09304428 28.88909721 C-4.09237528 26.43655836 -4.09320252 23.98401864 -4.09552383 21.53148079 C-4.09804778 18.11748027 -4.09421439 14.70354631 -4.08862305 11.28955078 C-4.09064728 10.26778244 -4.09267151 9.2460141 -4.09475708 8.19328308 C-4.09193726 7.2694986 -4.08911743 6.34571411 -4.08621216 5.39393616 C-4.08583513 4.58669633 -4.08545811 3.7794565 -4.08506966 2.94775486 C-3.87032233 -0.18234934 -3.18136346 0.12204719 0 0 Z " fill="#186C6B" transform="translate(188.959228515625,96.886474609375)"/>
<path d="M0 0 C1.32330322 0.0146228 1.32330322 0.0146228 2.67333984 0.02954102 C13.75382016 0.33058556 20.94686759 3.23027708 28.96484375 11.01953125 C32.24987075 14.59322494 34.89980461 18.15522018 37.1875 22.4375 C37.6 23.19933594 38.0125 23.96117187 38.4375 24.74609375 C42.94343305 34.7749239 42.8770068 48.57597508 40 59.125 C39.44606352 60.58259322 38.84312582 62.0227285 38.1875 63.4375 C37.85878906 64.17613281 37.53007812 64.91476562 37.19140625 65.67578125 C31.50862772 77.06100191 22.89844648 84.63435366 11.1328125 89.2421875 C1.40180111 92.18975527 -8.83333304 91.02568341 -17.8125 86.4375 C-19.04644117 85.59259176 -20.26817341 84.7296654 -21.47924805 83.85229492 C-22.1048613 83.40053391 -22.73047455 82.94877289 -23.37504578 82.48332214 C-23.84940567 82.13820084 -24.32376556 81.79307953 -24.8125 81.4375 C-24.83755615 82.61368896 -24.8626123 83.78987793 -24.88842773 85.00170898 C-24.98232806 89.34964622 -25.08259048 93.69741716 -25.18481445 98.04516602 C-25.22822933 99.92989218 -25.26989943 101.81465936 -25.30981445 103.69946289 C-25.36735893 106.40263249 -25.43109804 109.10559436 -25.49609375 111.80859375 C-25.52116249 113.08046791 -25.52116249 113.08046791 -25.54673767 114.3780365 C-25.69862829 120.32362829 -25.69862829 120.32362829 -26.8125 121.4375 C-28.43507544 121.5366657 -30.06189831 121.56829777 -31.6875 121.5703125 C-32.67234375 121.57160156 -33.6571875 121.57289063 -34.671875 121.57421875 C-35.70828125 121.57035156 -36.7446875 121.56648438 -37.8125 121.5625 C-39.36710937 121.56830078 -39.36710937 121.56830078 -40.953125 121.57421875 C-41.93796875 121.57292969 -42.9228125 121.57164062 -43.9375 121.5703125 C-44.84757812 121.56918457 -45.75765625 121.56805664 -46.6953125 121.56689453 C-48.8125 121.4375 -48.8125 121.4375 -49.8125 120.4375 C-49.91045069 118.92163888 -49.93881815 117.40122447 -49.93948364 115.88220215 C-49.94230347 114.89781662 -49.94512329 113.91343109 -49.94802856 112.8992157 C-49.94600433 111.81034561 -49.9439801 110.72147552 -49.94189453 109.59960938 C-49.94364685 108.45990189 -49.94539917 107.3201944 -49.94720459 106.14595032 C-49.95162586 102.35770164 -49.94868414 98.5694992 -49.9453125 94.78125 C-49.94598546 92.16190583 -49.94695542 89.54256173 -49.94821167 86.92321777 C-49.9500332 81.42520644 -49.94762749 75.92720852 -49.94287109 70.42919922 C-49.9374285 64.06433013 -49.93919117 57.69949308 -49.9446975 51.33462477 C-49.94977429 45.22265668 -49.9492471 39.11070284 -49.94631577 32.99873352 C-49.94564622 30.39268489 -49.94647587 27.78663545 -49.94879532 25.18058777 C-49.95132022 21.54549967 -49.94748353 17.91047404 -49.94189453 14.27539062 C-49.94391876 13.18652054 -49.94594299 12.09765045 -49.94802856 10.9757843 C-49.94520874 9.99139877 -49.94238892 9.00701324 -49.93948364 7.99279785 C-49.93910662 7.13222023 -49.93872959 6.27164261 -49.93834114 5.38498688 C-49.8125 3.4375 -49.8125 3.4375 -48.8125 2.4375 C-47.25077255 2.35064397 -45.68520656 2.33047781 -44.12109375 2.33984375 C-43.17685547 2.34306641 -42.23261719 2.34628906 -41.25976562 2.34960938 C-40.26654297 2.35798828 -39.27332031 2.36636719 -38.25 2.375 C-37.25291016 2.37951172 -36.25582031 2.38402344 -35.22851562 2.38867188 C-32.75645151 2.40049993 -30.28450482 2.41698151 -27.8125 2.4375 C-27.1525 4.7475 -26.4925 7.0575 -25.8125 9.4375 C-25.3278125 9.03917969 -24.843125 8.64085937 -24.34375 8.23046875 C-23.6734375 7.70066406 -23.003125 7.17085938 -22.3125 6.625 C-21.6628125 6.10292969 -21.013125 5.58085937 -20.34375 5.04296875 C-13.80361661 0.89482859 -7.65946318 -0.09437161 0 0 Z " fill="#543985" transform="translate(99.8125,277.5625)"/>
<path d="M0 0 C0.83523193 0.00974854 1.67046387 0.01949707 2.53100586 0.02954102 C13.4838232 0.343086 20.54651608 3.40714255 28.4609375 11.0703125 C39.34595024 22.64279973 41.20531179 34.20832654 40.96484375 49.625 C40.49062237 61.629171 35.62910013 71.40880962 27.4375 80 C24.6875 82.4375 24.6875 82.4375 22.6875 82.4375 C22.6875 83.0975 22.6875 83.7575 22.6875 84.4375 C12.7833915 89.74327241 2.93581918 92.44531454 -8.28125 89.71484375 C-12.6375785 88.23680372 -16.25503186 86.55032629 -19.97924805 83.85229492 C-20.6048613 83.40053391 -21.23047455 82.94877289 -21.87504578 82.48332214 C-22.34940567 82.13820084 -22.82376556 81.79307953 -23.3125 81.4375 C-23.33755615 82.61368896 -23.3626123 83.78987793 -23.38842773 85.00170898 C-23.48232806 89.34964622 -23.58259048 93.69741716 -23.68481445 98.04516602 C-23.72822933 99.92989218 -23.76989943 101.81465936 -23.80981445 103.69946289 C-23.86735893 106.40263249 -23.93109804 109.10559436 -23.99609375 111.80859375 C-24.02116249 113.08046791 -24.02116249 113.08046791 -24.04673767 114.3780365 C-24.19862829 120.32362829 -24.19862829 120.32362829 -25.3125 121.4375 C-26.86205559 121.53649523 -28.41603673 121.56829524 -29.96875 121.5703125 C-31.37833984 121.57224609 -31.37833984 121.57224609 -32.81640625 121.57421875 C-34.29947266 121.56841797 -34.29947266 121.56841797 -35.8125 121.5625 C-36.80121094 121.56636719 -37.78992188 121.57023437 -38.80859375 121.57421875 C-39.74832031 121.57292969 -40.68804687 121.57164062 -41.65625 121.5703125 C-42.52443359 121.56918457 -43.39261719 121.56805664 -44.28710938 121.56689453 C-46.3125 121.4375 -46.3125 121.4375 -47.3125 120.4375 C-47.41045069 118.92163888 -47.43881815 117.40122447 -47.43948364 115.88220215 C-47.44230347 114.89781662 -47.44512329 113.91343109 -47.44802856 112.8992157 C-47.44600433 111.81034561 -47.4439801 110.72147552 -47.44189453 109.59960938 C-47.44364685 108.45990189 -47.44539917 107.3201944 -47.44720459 106.14595032 C-47.45162586 102.35770164 -47.44868414 98.5694992 -47.4453125 94.78125 C-47.44598546 92.16190583 -47.44695542 89.54256173 -47.44821167 86.92321777 C-47.4500332 81.42520644 -47.44762749 75.92720852 -47.44287109 70.42919922 C-47.4374285 64.06433013 -47.43919117 57.69949308 -47.4446975 51.33462477 C-47.44977429 45.22265668 -47.4492471 39.11070284 -47.44631577 32.99873352 C-47.44564622 30.39268489 -47.44647587 27.78663545 -47.44879532 25.18058777 C-47.45132022 21.54549967 -47.44748353 17.91047404 -47.44189453 14.27539062 C-47.44391876 13.18652054 -47.44594299 12.09765045 -47.44802856 10.9757843 C-47.44520874 9.99139877 -47.44238892 9.00701324 -47.43948364 7.99279785 C-47.43910662 7.13222023 -47.43872959 6.27164261 -47.43834114 5.38498688 C-47.3125 3.4375 -47.3125 3.4375 -46.3125 2.4375 C-44.83597336 2.33869203 -43.35482764 2.30670755 -41.875 2.3046875 C-40.98039062 2.30339844 -40.08578125 2.30210937 -39.1640625 2.30078125 C-38.22304688 2.30464844 -37.28203125 2.30851562 -36.3125 2.3125 C-34.90097656 2.30669922 -34.90097656 2.30669922 -33.4609375 2.30078125 C-32.11902344 2.30271484 -32.11902344 2.30271484 -30.75 2.3046875 C-29.92371094 2.30581543 -29.09742188 2.30694336 -28.24609375 2.30810547 C-26.3125 2.4375 -26.3125 2.4375 -25.3125 3.4375 C-25.27169217 5.43708364 -25.26995644 7.43795254 -25.3125 9.4375 C-24.8278125 9.03917969 -24.343125 8.64085937 -23.84375 8.23046875 C-23.1734375 7.70066406 -22.503125 7.17085938 -21.8125 6.625 C-21.1628125 6.10292969 -20.513125 5.58085937 -19.84375 5.04296875 C-13.47847773 1.00573587 -7.46089911 -0.09742443 0 0 Z " fill="#543985" transform="translate(507.3125,277.5625)"/>
<path d="M0 0 C7.22008688 6.01673907 11.94914198 12.91346086 12.97817993 22.46609497 C13.10211157 26.21425791 13.10122818 29.94154693 13.05078125 33.69140625 C13.04584697 35.06476871 13.04255486 36.43813795 13.04081726 37.81150818 C13.0332336 40.66663657 13.0128335 43.52125342 12.98168945 46.3762207 C12.94177856 50.04155959 12.9240204 53.70657009 12.91438007 57.37210178 C12.90444148 60.87441446 12.88456536 64.37664684 12.86328125 67.87890625 C12.85589432 69.19854874 12.84850739 70.51819122 12.84089661 71.87782288 C12.82806137 73.08675705 12.81522614 74.29569122 12.80200195 75.54125977 C12.79215775 76.61030045 12.78231354 77.67934113 12.77217102 78.78077698 C12.625 81.1875 12.625 81.1875 11.625 82.1875 C10.1362814 82.27419432 8.643555 82.29453494 7.15234375 82.28515625 C6.25322266 82.28193359 5.35410156 82.27871094 4.42773438 82.27539062 C3.00944336 82.26282227 3.00944336 82.26282227 1.5625 82.25 C0.1384082 82.24323242 0.1384082 82.24323242 -1.31445312 82.23632812 C-3.66799531 82.22450128 -6.02150532 82.20656521 -8.375 82.1875 C-9.365 77.2375 -9.365 77.2375 -10.375 72.1875 C-11.48875 73.26 -12.6025 74.3325 -13.75 75.4375 C-18.20877196 79.36376266 -22.78286751 81.3400104 -28.375 83.1875 C-29.365 83.5175 -30.355 83.8475 -31.375 84.1875 C-41.19080625 85.03678773 -50.59952228 83.58067057 -58.375 77.1875 C-63.67444563 71.95527778 -66.95388252 67.64478243 -67.67578125 60.00390625 C-67.70949331 50.64319064 -66.53001794 44.84309413 -60.08984375 37.8203125 C-51.80428412 29.93110083 -40.88873234 27.6146979 -29.6875 27.8828125 C-23.16518888 28.48274206 -16.77441026 29.82315873 -10.375 31.1875 C-10.96116617 23.2559317 -10.96116617 23.2559317 -15.375 17.0625 C-21.67352843 13.12591973 -29.08685349 13.08838993 -36.375 14.1875 C-40.3793834 15.99777919 -43.06592633 18.5244233 -45.76171875 21.94921875 C-47.375 23.1875 -47.375 23.1875 -49.6953125 23.20703125 C-53.28797236 21.84014463 -55.61275174 19.57155146 -58.25 16.875 C-59.01570312 16.14506836 -59.01570312 16.14506836 -59.796875 15.40039062 C-63.37611157 11.80664364 -63.37611157 11.80664364 -63.37109375 9.01171875 C-59.46271131 1.85401444 -50.54346575 -1.81424525 -43.375 -4.8125 C-28.94775805 -8.23540754 -13.01436451 -6.98919576 0 0 Z " fill="#543A85" transform="translate(216.375,283.8125)"/>
<path d="M0 0 C6.08270186 4.63628444 9.74427297 11.22417442 10.96484375 18.71484375 C11.05457425 20.82503092 11.09271768 22.93771114 11.09423828 25.04980469 C11.09739044 26.30750671 11.1005426 27.56520874 11.10379028 28.86102295 C11.10200106 30.22375524 11.09995024 31.58648721 11.09765625 32.94921875 C11.09833017 34.35215268 11.09930094 35.75508649 11.10055542 37.15802002 C11.10202628 40.08989581 11.09989621 43.02174105 11.09521484 45.95361328 C11.0894968 49.71884444 11.09281347 53.48400464 11.09878731 57.24923325 C11.10239148 60.14189189 11.10125537 63.03453355 11.09865952 65.92719269 C11.09799094 67.3163275 11.09881627 68.70546383 11.10113907 70.09459686 C11.10366546 72.02888461 11.09913524 73.96317774 11.09423828 75.89746094 C11.09344269 76.99934753 11.09264709 78.10123413 11.09182739 79.23651123 C10.96484375 81.71484375 10.96484375 81.71484375 9.96484375 82.71484375 C8.4031163 82.80169978 6.83755031 82.82186594 5.2734375 82.8125 C4.32919922 82.80927734 3.38496094 82.80605469 2.41210938 82.80273438 C1.41888672 82.79435547 0.42566406 82.78597656 -0.59765625 82.77734375 C-1.59474609 82.77283203 -2.59183594 82.76832031 -3.61914062 82.76367188 C-6.09120474 82.75184382 -8.56315143 82.73536224 -11.03515625 82.71484375 C-11.04102249 82.05609253 -11.04688873 81.39734131 -11.05293274 80.71862793 C-11.11704664 73.83980987 -11.2015128 66.96145187 -11.29760742 60.08300781 C-11.33078719 57.51861653 -11.35884057 54.95415344 -11.3815918 52.38964844 C-11.41526475 48.69565333 -11.46758932 45.00231215 -11.5234375 41.30859375 C-11.52982742 40.16869995 -11.53621735 39.02880615 -11.5428009 37.85437012 C-11.6598111 31.46706023 -12.19815131 26.48173301 -15.03515625 20.71484375 C-21.93007951 15.1127186 -28.46442886 15.14416646 -37.03515625 15.71484375 C-42.35009918 17.42321826 -44.79122723 20.35871049 -48.03515625 24.71484375 C-49.31184699 27.26822524 -49.18767096 29.11600127 -49.22460938 31.97485352 C-49.2413269 33.07261612 -49.25804443 34.17037872 -49.27526855 35.30140686 C-49.28884399 36.4910051 -49.30241943 37.68060333 -49.31640625 38.90625 C-49.33481567 40.1218309 -49.3532251 41.3374118 -49.37219238 42.58982849 C-49.45111857 47.81003756 -49.51875992 53.03037961 -49.58740234 58.25073242 C-49.6389809 62.05263961 -49.69628406 65.85443041 -49.75390625 69.65625 C-49.76748169 70.84787247 -49.78105713 72.03949493 -49.79504395 73.26722717 C-49.81176147 74.36183762 -49.828479 75.45644806 -49.84570312 76.58422852 C-49.86449524 78.03745262 -49.86449524 78.03745262 -49.88366699 79.52003479 C-50.03515625 81.71484375 -50.03515625 81.71484375 -51.03515625 82.71484375 C-52.66988507 82.80184717 -54.3082968 82.82185438 -55.9453125 82.8125 C-56.93466797 82.80927734 -57.92402344 82.80605469 -58.94335938 82.80273438 C-59.98427734 82.79435547 -61.02519531 82.78597656 -62.09765625 82.77734375 C-63.14244141 82.77283203 -64.18722656 82.76832031 -65.26367188 82.76367188 C-67.85422285 82.75184288 -70.44466184 82.73536064 -73.03515625 82.71484375 C-74.59166755 79.60182115 -74.1735633 76.30100427 -74.16455078 72.88452148 C-74.1663031 72.07628937 -74.16805542 71.26805725 -74.16986084 70.43533325 C-74.17427221 67.75634634 -74.17134414 65.07742511 -74.16796875 62.3984375 C-74.16864193 60.54281095 -74.16961207 58.68718448 -74.17086792 56.83155823 C-74.17234387 52.94018719 -74.17019338 49.04883908 -74.16552734 45.1574707 C-74.15982615 40.15793505 -74.16311218 35.15845303 -74.16909981 30.15891933 C-74.17270481 26.32692558 -74.17156719 22.49494465 -74.16897202 18.66295052 C-74.16830278 16.81886857 -74.16913104 14.97478548 -74.17145157 13.13070488 C-74.17397752 10.55902881 -74.1701385 7.98744095 -74.16455078 5.41577148 C-74.16657501 4.64639755 -74.16859924 3.87702362 -74.17068481 3.08433533 C-74.14941966 -2.17089284 -74.14941966 -2.17089284 -73.03515625 -3.28515625 C-71.48560066 -3.38415148 -69.93161952 -3.41595149 -68.37890625 -3.41796875 C-66.96931641 -3.41990234 -66.96931641 -3.41990234 -65.53125 -3.421875 C-64.54253906 -3.41800781 -63.55382812 -3.41414063 -62.53515625 -3.41015625 C-61.05208984 -3.41595703 -61.05208984 -3.41595703 -59.5390625 -3.421875 C-58.59933594 -3.42058594 -57.65960938 -3.41929687 -56.69140625 -3.41796875 C-55.82322266 -3.41684082 -54.95503906 -3.41571289 -54.06054688 -3.41455078 C-52.03515625 -3.28515625 -52.03515625 -3.28515625 -51.03515625 -2.28515625 C-50.66754894 0.04302339 -50.33274044 2.37668225 -50.03515625 4.71484375 C-49.08640625 3.80734375 -48.13765625 2.89984375 -47.16015625 1.96484375 C-34.51940347 -8.55665067 -13.77107557 -8.69613025 0 0 Z " fill="#553A86" transform="translate(321.03515625,283.28515625)"/>
<path d="M0 0 C0.93972656 -0.00128906 1.87945312 -0.00257813 2.84765625 -0.00390625 C3.83636719 -0.00003906 4.82507813 0.00382812 5.84375 0.0078125 C7.32681641 0.00201172 7.32681641 0.00201172 8.83984375 -0.00390625 C10.24943359 -0.00197266 10.24943359 -0.00197266 11.6875 0 C12.55568359 0.00112793 13.42386719 0.00225586 14.31835938 0.00341797 C16.34375 0.1328125 16.34375 0.1328125 17.34375 1.1328125 C17.41705331 3.99750575 17.43592831 6.83174924 17.40625 9.6953125 C17.385625 12.4796875 17.365 15.2640625 17.34375 18.1328125 C25.26375 18.1328125 33.18375 18.1328125 41.34375 18.1328125 C41.364375 21.0821875 41.385 24.0315625 41.40625 27.0703125 C41.415354 28.00093506 41.42445801 28.93155762 41.43383789 29.89038086 C41.43633545 30.61878174 41.43883301 31.34718262 41.44140625 32.09765625 C41.44664307 32.846521 41.45187988 33.59538574 41.45727539 34.36694336 C41.34375 36.1328125 41.34375 36.1328125 40.34375 37.1328125 C38.63602642 37.21995081 36.92476351 37.23981257 35.21484375 37.23046875 C34.18037109 37.22724609 33.14589844 37.22402344 32.08007812 37.22070312 C30.99146484 37.21232422 29.90285156 37.20394531 28.78125 37.1953125 C27.1425293 37.18854492 27.1425293 37.18854492 25.47070312 37.18164062 C22.76166505 37.16981076 20.05273401 37.15332793 17.34375 37.1328125 C17.4126898 42.88071567 17.50068778 48.62789578 17.60620117 54.37524414 C17.63941354 56.32958952 17.66745695 58.28402997 17.69018555 60.23852539 C17.72379933 63.05135532 17.77611854 65.86331697 17.83203125 68.67578125 C17.83842117 69.54679977 17.8448111 70.4178183 17.85139465 71.31523132 C17.96552961 76.04615566 18.23878442 79.31811434 21.34375 83.1328125 C25.13538027 85.66056601 28.15249031 85.35724285 32.53125 85.2578125 C33.28083984 85.24878906 34.03042969 85.23976563 34.80273438 85.23046875 C36.64987654 85.20693828 38.49685412 85.17106811 40.34375 85.1328125 C40.87844802 86.85774228 41.39594175 88.5880105 41.90625 90.3203125 C42.19628906 91.28324219 42.48632812 92.24617188 42.78515625 93.23828125 C43.37645147 96.30226558 43.29157419 98.17601313 42.34375 101.1328125 C35.74371914 106.53283775 26.48529866 106.86883568 18.34375 106.1328125 C9.26739309 104.34366013 2.85474199 100.7290447 -2.65625 93.1328125 C-5.0760026 88.41379291 -6.78436 83.89296123 -6.76977539 78.56958008 C-6.76969986 77.64885208 -6.76962433 76.72812408 -6.76954651 75.77949524 C-6.76438522 74.78878525 -6.75922394 73.79807526 -6.75390625 72.77734375 C-6.7524913 71.76057053 -6.75107635 70.7437973 -6.74961853 69.69621277 C-6.74401707 66.44588286 -6.73146432 63.19562162 -6.71875 59.9453125 C-6.71373519 57.74283954 -6.70917225 55.54036549 -6.70507812 53.33789062 C-6.69404716 47.93617143 -6.67678154 42.53450361 -6.65625 37.1328125 C-11.27625 37.1328125 -15.89625 37.1328125 -20.65625 37.1328125 C-22.24321844 33.95887561 -21.7993947 30.55107045 -21.78125 27.0703125 C-21.78511719 26.32458984 -21.78898437 25.57886719 -21.79296875 24.81054688 C-21.78288501 19.25944751 -21.78288501 19.25944751 -20.65625 18.1328125 C-18.12575598 18.05967683 -15.62320163 18.04033723 -13.09375 18.0703125 C-12.38283203 18.07482422 -11.67191406 18.07933594 -10.93945312 18.08398438 C-9.17834987 18.09580386 -7.41728964 18.11373987 -5.65625 18.1328125 C-5.67365234 16.30943359 -5.67365234 16.30943359 -5.69140625 14.44921875 C-5.70078278 12.86458486 -5.70988313 11.27994932 -5.71875 9.6953125 C-5.72712891 8.89287109 -5.73550781 8.09042969 -5.74414062 7.26367188 C-5.7527643 5.21986029 -5.7085315 3.17597348 -5.65625 1.1328125 C-4.03424485 -0.48919265 -2.23601969 0.002905 0 0 Z " fill="#553B85" transform="translate(362.65625,261.8671875)"/>
<path d="M0 0 C1.40958984 -0.00193359 1.40958984 -0.00193359 2.84765625 -0.00390625 C3.83636719 -0.00003906 4.82507813 0.00382812 5.84375 0.0078125 C7.32681641 0.00201172 7.32681641 0.00201172 8.83984375 -0.00390625 C9.77957031 -0.00261719 10.71929687 -0.00132812 11.6875 0 C12.55568359 0.00112793 13.42386719 0.00225586 14.31835938 0.00341797 C16.34375 0.1328125 16.34375 0.1328125 17.34375 1.1328125 C17.43886266 3.78019339 17.46930635 6.40140251 17.45727539 9.04907227 C17.45742142 9.87827179 17.45756744 10.70747131 17.4577179 11.5617981 C17.45701851 14.31596448 17.44922493 17.07006411 17.44140625 19.82421875 C17.43954216 21.72851016 17.43811822 23.63280205 17.43711853 25.53709412 C17.43329263 30.55949213 17.42346173 35.58186142 17.41241455 40.60424805 C17.40220198 45.7250937 17.39762124 50.84594398 17.39257812 55.96679688 C17.38183953 66.02214807 17.36476224 76.0774779 17.34375 86.1328125 C13.69793313 86.16168762 10.05214537 86.17956835 6.40625 86.1953125 C4.84487305 86.20788086 4.84487305 86.20788086 3.25195312 86.22070312 C2.26259766 86.22392578 1.27324219 86.22714844 0.25390625 86.23046875 C-1.12075806 86.23832397 -1.12075806 86.23832397 -2.52319336 86.24633789 C-4.65625 86.1328125 -4.65625 86.1328125 -5.65625 85.1328125 C-5.75666457 82.52130962 -5.79242057 79.93622885 -5.78564453 77.32421875 C-5.78739685 76.50637909 -5.78914917 75.68853943 -5.79095459 74.84591675 C-5.79537385 72.1290274 -5.79243486 69.41220257 -5.7890625 66.6953125 C-5.78973552 64.81583646 -5.79070553 62.93636051 -5.79196167 61.05688477 C-5.79343874 57.11245904 -5.79128379 53.16805592 -5.78662109 49.22363281 C-5.7809238 44.15568747 -5.78420276 39.08779508 -5.79019356 34.01985168 C-5.79379892 30.13724363 -5.7926607 26.25464822 -5.79006577 22.37203979 C-5.78939643 20.50283807 -5.79022516 18.63363522 -5.79254532 16.76443481 C-5.79507143 14.15672746 -5.79123184 11.54910709 -5.78564453 8.94140625 C-5.78766876 8.16111053 -5.78969299 7.38081482 -5.79177856 6.57687378 C-5.76556656 0.00749053 -5.76556656 0.00749053 0 0 Z " fill="#523782" transform="translate(425.65625,279.8671875)"/>
<path d="M0 0 C5.51672186 2.83318085 9.28804914 6.76359828 12.0625 12.3125 C14.38065034 21.69701206 13.99495027 32.05431332 9.25 40.5625 C5.51476962 45.2582182 1.32130723 48.68526214 -4.63671875 49.83203125 C-11.24404964 50.47980879 -17.05554851 50.75332538 -22.9375 47.3125 C-26.92974762 43.74137554 -29.72596373 40.31047955 -30.11450195 34.80395508 C-30.18102867 31.57754167 -30.22241892 28.35198633 -30.25 25.125 C-30.27900391 24.01318359 -30.30800781 22.90136719 -30.33789062 21.75585938 C-30.39898669 13.81806998 -29.48389769 8.14489751 -24 2.21875 C-16.39011408 -2.96980858 -8.55212763 -3.45784861 0 0 Z " fill="#FDFDFD" transform="translate(103.9375,298.6875)"/>
<path d="M0 0 C6.07236148 2.61619032 11.08293772 6.89081869 13.8984375 12.92578125 C17.11266308 21.22673997 17.09806671 29.69660532 13.91015625 38 C11.32164226 43.68806507 8.41894864 46.88698695 3 50 C-3.17622606 52.05874202 -11.40159727 52.19411281 -17.625 50.12890625 C-22.20588748 47.48274966 -25.17112019 44.01693613 -27 39 C-27.5945803 34.84231784 -27.60436789 30.75667767 -27.5625 26.5625 C-27.58634766 25.46873047 -27.61019531 24.37496094 -27.63476562 23.24804688 C-27.62204961 16.2076126 -26.64907466 11.40763496 -22 6 C-15.27206848 -0.23564384 -9.03027555 -1.21602071 0 0 Z " fill="#FBFBFC" transform="translate(510,297)"/>
<path d="M0 0 C3.375 1.6875 3.375 1.6875 6 4 C6.78375 4.680625 7.5675 5.36125 8.375 6.0625 C10.88884544 10.60675906 10.73753515 14.92665212 10 20 C7.79046856 24.58273187 5.49345121 26.74039918 1 29 C-4.54808604 29.82885269 -9.47140883 29.7240695 -14.5625 27.3125 C-18.68037227 23.40580067 -20.17362217 20.7401294 -20.4375 15.0625 C-20.27484835 10.30317126 -19.26122101 7.60450744 -16 4 C-11.0689115 -0.46146102 -6.38623612 -1.02970257 0 0 Z " fill="#533885" transform="translate(436,240)"/>
<path d="M0 0 C0.44497608 8.75119617 0.44497608 8.75119617 -3 13 C-9.24313385 18.83597294 -13.95075964 20.42326865 -22.33984375 20.25390625 C-26.78906782 19.82923729 -29.60475114 18.25572398 -32.875 15.3125 C-34.53768709 11.89475432 -34.6581974 8.67859211 -34 5 C-27.22021454 -6.55074559 -10.91157687 -1.97112356 0 0 Z " fill="#FDFDFD" transform="translate(206,330)"/>
<path d="M0 0 C10.23 0 20.46 0 31 0 C31 35.31 31 70.62 31 107 C30.67 107 30.34 107 30 107 C30 72.35 30 37.7 30 2 C20.43 2 10.86 2 1 2 C1 39.62 1 77.24 1 116 C-0.85605796 112.28788408 -1.24983284 111.18666266 -1.24723816 107.3117218 C-1.25143265 106.3736972 -1.25562714 105.43567261 -1.25994873 104.46922302 C-1.25151947 102.93625328 -1.25151947 102.93625328 -1.24291992 101.37231445 C-1.24481827 100.29069031 -1.24671661 99.20906616 -1.24867249 98.09466553 C-1.25237909 94.51746385 -1.24167929 90.94046489 -1.23046875 87.36328125 C-1.229277 84.88274662 -1.22882378 82.40221154 -1.2290802 79.92167664 C-1.22731518 74.05808492 -1.21593138 68.19456806 -1.20057994 62.33099765 C-1.18568193 56.3182187 -1.18507263 50.30548615 -1.18575573 44.29269123 C-1.18548451 39.17222872 -1.18001153 34.05178289 -1.17275429 28.93132591 C-1.16956176 26.46762404 -1.16759886 24.00392027 -1.16686058 21.54021645 C-1.16470468 18.10661179 -1.15597757 14.67308914 -1.14526367 11.23950195 C-1.14571686 10.21144943 -1.14617004 9.18339691 -1.14663696 8.12419128 C-1.14237198 7.19462616 -1.13810699 6.26506104 -1.13371277 5.30732727 C-1.13203692 4.49489217 -1.13036108 3.68245707 -1.12863445 2.84540272 C-1 1 -1 1 0 0 Z " fill="#245D5C" transform="translate(186,97)"/>
<path d="M0 0 C2.93423195 1.79646854 4.47205355 2.9441071 6 6 C6.5811138 13.08958838 6.5811138 13.08958838 4.125 16.9375 C0.45498075 20.49957751 -2.5683995 20.38472876 -7.515625 20.36328125 C-11.2355088 19.81933598 -12.79539801 17.91576392 -15 15 C-15.33 14.67 -15.66 14.34 -16 14 C-16.5573482 8.31504837 -15.58551703 5.42916809 -12 1 C-8.30274625 -0.84862688 -4.03538558 -0.47587094 0 0 Z " fill="#FAFBFA" transform="translate(445,136)"/>
<path d="M0 0 C2.96599632 2.58735849 4.66139653 4.16237078 5.375 8.03515625 C5.48634887 11.758384 5.22207519 14.95926553 3 18 C-1.46286809 20.97524539 -5.77017194 20.73401096 -11 20 C-14.79053227 17.4982487 -15.72998891 15.87356529 -17.0625 11.5625 C-16.97070285 6.33006239 -14.59844372 3.59844372 -11 0 C-7.22967456 -1.53605851 -3.86774934 -1.01782877 0 0 Z " fill="#FAFBFB" transform="translate(409,136)"/>
<path d="M0 0 C3.7718452 2.54022227 4.76465389 4.12137453 5.9375 8.5 C6.01743899 12.97658362 5.4395097 15.50717513 2.3125 18.75 C-0.87980974 20.47557283 -3.37474732 20.87499129 -7 21 C-10.60115926 19.75344487 -12.47582284 18.64648516 -14.875 15.6875 C-16.21887328 12.47713606 -16.431566 10.45252804 -16 7 C-12.52264339 -0.28589005 -7.51105893 -1.15001859 0 0 Z " fill="#FAFBFA" transform="translate(372,136)"/>
<path d="M0 0 C4.41140177 2.20570089 7.22130155 4.93882534 10 9 C10 9.66 10 10.32 10 11 C9.34 11 8.68 11 8 11 C7.38125 10.05125 6.7625 9.1025 6.125 8.125 C3.61393446 4.43225656 1.98010866 3.40464532 -2.33203125 2.5234375 C-6.22277948 2.29060532 -8.91767246 2.26056915 -12.20703125 4.5078125 C-15.3331973 7.75495036 -17.4150577 10.59501211 -17.625 15.1875 C-17.00948837 18.94212094 -16.05106106 20.87882013 -14 24 C-14.33 24.99 -14.66 25.98 -15 27 C-19.24514285 21.79627651 -20.36381941 19.20729686 -20.27734375 12.5390625 C-19.72629717 7.49426985 -16.99488756 4.90013636 -13.375 1.625 C-8.80155451 -0.57702931 -4.99046524 -0.80465156 0 0 Z " fill="#5A477C" transform="translate(436,240)"/>
<path d="M0 0 C3 1 3 1 4 3 C15.22 3.33 26.44 3.66 38 4 C38.33 3.34 38.66 2.68 39 2 C39.495 3.98 39.495 3.98 40 6 C27.79 6 15.58 6 3 6 C2.01 4.02 1.02 2.04 0 0 Z " fill="#1E5C5C" transform="translate(142,250)"/>
<path d="M0 0 C-2.60391539 0.97983928 -5.20811968 1.95889794 -7.8125 2.9375 C-8.55048828 3.21529297 -9.28847656 3.49308594 -10.04882812 3.77929688 C-10.76103516 4.04677734 -11.47324219 4.31425781 -12.20703125 4.58984375 C-12.8616333 4.83597412 -13.51623535 5.08210449 -14.19067383 5.33569336 C-15.78311815 5.92037033 -17.39066676 6.46355559 -19 7 C-19.268125 7.556875 -19.53625 8.11375 -19.8125 8.6875 C-21.532843 12.03764163 -24.08575288 14.62425507 -27 17 C-27.66 17 -28.32 17 -29 17 C-29.19335938 17.62648438 -29.38671875 18.25296875 -29.5859375 18.8984375 C-29.84632813 19.71570313 -30.10671875 20.53296875 -30.375 21.375 C-30.63023437 22.18710938 -30.88546875 22.99921875 -31.1484375 23.8359375 C-32 26 -32 26 -34 28 C-33.5898428 20.20701312 -28.85764373 13.41317043 -23.3125 8.1875 C-17.12548122 3.14490088 -8.07348921 -2.22912183 0 0 Z " fill="#62976D" transform="translate(357,85)"/>
<path d="M0 0 C12.54 0 25.08 0 38 0 C37.67 1.32 37.34 2.64 37 4 C36.505 3.01 36.505 3.01 36 2 C24.12 2.33 12.24 2.66 0 3 C0 2.01 0 1.02 0 0 Z " fill="#326867" transform="translate(140,97)"/>
<path d="M0 0 C0.66 0.33 1.32 0.66 2 1 C1.154375 1.9075 0.30875 2.815 -0.5625 3.75 C-2.73261875 6.18952952 -2.73261875 6.18952952 -2.8125 9.375 C-2.544375 9.91125 -2.27625 10.4475 -2 11 C-2.99 11 -3.98 11 -5 11 C-5.66 10.34 -6.32 9.68 -7 9 C-7 7.1875 -7 7.1875 -6 5 C-4.10171925 3.1543032 -2.10975408 1.61598185 0 0 Z " fill="#5E4B81" transform="translate(160,286)"/>
<path d="M0 0 C2.31 0 4.62 0 7 0 C7 0.33 7 0.66 7 1 C9.64 1.33 12.28 1.66 15 2 C15 2.33 15 2.66 15 3 C13.25008666 3.02715383 11.50005055 3.04646551 9.75 3.0625 C8.28820312 3.07990234 8.28820312 3.07990234 6.796875 3.09765625 C4.34241322 3.01195577 2.33831086 2.70706066 0 2 C0 1.34 0 0.68 0 0 Z " fill="#7A6C93" transform="translate(170,365)"/>
<path d="M0 0 C2.38672669 2.96283313 4.7353371 5.94270509 7 9 C6.01 9 5.02 9 4 9 C1.58085776 6.36740403 0.13523734 4.40571201 -1 1 C-0.67 0.67 -0.34 0.34 0 0 Z " fill="#58437B" transform="translate(360,351)"/>
<path d="M0 0 C0.99 0.495 0.99 0.495 2 1 C2.59355614 3.64860427 2.74209269 6.29197322 3 9 C2.34 9 1.68 9 1 9 C0.67 6.03 0.34 3.06 0 0 Z " fill="#376D6C" transform="translate(216,204)"/>
<path d="M0 0 C3.78786597 0.5260925 6.17152224 1.38103911 9 4 C9 4.66 9 5.32 9 6 C5.56404834 4.47291037 2.88087546 2.40072955 0 0 Z " fill="#58447A" transform="translate(73,357)"/>
<path d="M0 0 C0.33 0 0.66 0 1 0 C3.14285714 7.42857143 3.14285714 7.42857143 4 11 C3.01 10.67 2.02 10.34 1 10 C-0.1577506 6.52674819 -0.06866652 3.63932552 0 0 Z " fill="#5C4683" transform="translate(481,329)"/>
<path d="M0 0 C3 1 3 1 4 3 C6.52733235 3.65555119 6.52733235 3.65555119 9 4 C7.1875 5.0625 7.1875 5.0625 5 6 C4.01 5.67 3.02 5.34 2 5 C0.8125 2.4375 0.8125 2.4375 0 0 Z " fill="#2B6263" transform="translate(142,250)"/>
</svg>
